<svg id="Layer_1" data-name="Layer 1" xmlns="http://www.w3.org/2000/svg" viewBox="0 0 2335.11 2333.5"><defs><style>.cls-1{fill:#414042;}.cls-2{fill:#fff;}.cls-3{fill:#cb9831;}</style></defs><title>Casino logo</title><path class="cls-1" d="M1206.48,1248.85l804.76,804.76,809.52-804.76s-352.38-395.24-985.71-300C1835.05,948.85,1544.57,939.32,1206.48,1248.85Z" transform="translate(-844.32 -934.04)"/><path class="cls-2" d="M1868.59,1716.89h276.19L2052.14,1574s126,81,221.21,0,4.76-328.57-264.29-547.61c0,0-331,304.23-288.09,445s128.57,174.07,247.62,97.88C1968.59,1569.27,1935.25,1669.27,1868.59,1716.89Z" transform="translate(-844.32 -934.04)"/><path class="cls-3" d="M2053.42,2097.41,2863,1287.89s371.42,304.76,309.52,928.57c0,0,0,304.76-304.76,680.95Z" transform="translate(-844.32 -934.04)"/><path class="cls-2" d="M2716.51,1749.79s-100,271.43-252.38,333.34c0,0,152.38,61.9,252.38,352.38,0,0,166.67-352.38,271.43-342.86C2987.94,2092.65,2887.94,2049.79,2716.51,1749.79Z" transform="translate(-844.32 -934.04)"/><path class="cls-1" d="M2018.38,2147.29l800,804.76s-285.71,338.09-861.9,314.28c0,0-347.62,23.81-747.62-309.52Z" transform="translate(-844.32 -934.04)"/><path class="cls-2" d="M1863.68,2432.61h295.23s-110.54,109.52-107.65,147.61c0,0,121.94-71.42,193.37-19s147.62,138.09,28.57,276.19c0,0-57.14,38.09-142.86,28.57,0,0,104.76,128.57-9.52,238.09,0,0-123.81,104.77-257.14-42.85,0,0-42.86-100,28.57-200,0,0-166.67,28.57-200-138.1,0,0-14.29-147.62,147.62-180.95,0,0,104.76,4.76,123.81,47.62C1963.68,2589.75,1947,2506.42,1863.68,2432.61Z" transform="translate(-844.32 -934.04)"/><path class="cls-3" d="M1965.81,2092.65l-804.76,809.52S746.77,2485.55,865.81,1893.86c0,0,47.62-372.64,295.24-610.73Z" transform="translate(-844.32 -934.04)"/><path class="cls-2" d="M1284.86,2394.69s203.93-170.61,290.48-376.19-204.77-302.34-290.48-122.6c0,0-133.33-236.89-285.71,0,0,0-52.38,103.55,76.19,275Z" transform="translate(-844.32 -934.04)"/></svg>