<svg id="Layer_1" data-name="Layer 1" xmlns="http://www.w3.org/2000/svg" viewBox="0 0 1433.01 1433.01"><defs><style>.cls-1{fill:#cb9932;}</style></defs><title>instagram</title><path class="cls-1" d="M2231.3,1219c-194.42,0-218.73.9-295.24,4.5s-128.27,15.75-173.72,33.3a354.47,354.47,0,0,0-126.92,82.82,350.51,350.51,0,0,0-82.81,126.91c-17.56,45.46-29.71,97.67-33.31,173.73-3.6,76.51-4.5,100.81-4.5,295.24s.9,218.73,4.5,295.25c3.6,76.06,15.75,128.26,33.31,173.72,18.45,47.26,42.75,86.86,82.81,126.92,39.6,39.61,79.66,64.36,126.92,82.81,45.45,17.55,97.66,29.71,173.72,33.31,76.51,3.6,100.82,4.5,295.24,4.5s218.74-.9,295.25-4.5c76.06-3.6,128.27-15.76,173.72-33.31a354.31,354.31,0,0,0,126.92-82.81c39.61-39.61,64.36-79.66,82.81-126.92,17.56-45.46,29.71-97.66,33.31-173.72,3.6-76.52,4.5-100.82,4.5-295.25s-.9-218.73-4.5-295.24c-3.6-76.06-15.75-128.27-33.31-173.73a354.36,354.36,0,0,0-82.81-126.91,350.62,350.62,0,0,0-126.92-82.82c-45.45-17.55-97.66-29.7-173.72-33.3-76.51-3.6-100.82-4.5-295.25-4.5ZM2167,1348.21h64.35c191.28,0,213.79.45,289.4,4,69.76,3.15,107.56,14.85,132.77,24.75,33.3,13,57.16,28.36,82.36,53.56s40.5,49.06,53.56,82.36c9.9,25.2,21.6,63,24.75,132.77,3.6,75.61,4.05,98.11,4.05,288.94s-.9,213.78-4.05,289.4c-3.15,69.76-14.85,107.56-24.75,132.76-11.71,31.06-29.71,59.41-53.56,82.37-25.2,25.2-49.06,40.5-82.36,53.55-25.21,9.91-63,21.61-132.77,24.76-75.61,3.6-98.12,4.05-289.4,4.05s-213.78-.9-289.39-4.05c-69.76-3.15-107.56-14.85-132.77-24.76a236.9,236.9,0,0,1-135.92-135.92c-9.9-25.2-21.6-63-24.75-132.76-3.6-75.62-4-98.12-4-289.4s.9-213.78,4-288.94c3.15-69.76,14.85-107.57,24.75-132.77,13.06-33.3,28.36-57.16,53.56-82.36s49.06-40.51,82.36-53.56c25.21-9.9,63-21.6,132.77-24.75,66.16-3.15,91.82-4,225-4ZM2613.41,1467a86,86,0,0,0,0,171.93h0a86,86,0,0,0,0-171.93ZM2231.3,1567.39c-203-3.15-370.4,158.87-373.55,361.85s158.87,370.41,361.85,373.56h11.25c203-3.15,365-170.58,361.86-373.56C2590,1730.76,2429.78,1570.54,2231.3,1567.39Zm0,129.17c131.87,0,238.54,106.66,239,238.53,0,131.87-106.67,238.54-238.54,239h0a238.37,238.37,0,0,1-238.53-238.54C1993.22,1803.67,2099.44,1696.56,2231.3,1696.56Z" transform="translate(-1514.8 -1219.04)"/></svg>