<svg id="Layer_1" data-name="Layer 1" xmlns="http://www.w3.org/2000/svg" viewBox="0 0 1503.24 1056"><defs><style>.cls-1{fill:#cb9831;}</style></defs><title>youtube</title><path class="cls-1" d="M2212.93,1818.54h8.37c77.23.28,468.57,3.1,574.08,31.47a188.86,188.86,0,0,1,132.95,133.42c9.49,35.71,16.16,83,20.67,131.73l.94,9.78,2.07,24.42.75,9.78c6.11,85.87,6.86,166.3,6.95,183.87v7c-.09,18.23-.94,104.11-7.7,193.55l-.75,9.87-.85,9.77c-4.7,53.74-11.65,107.11-22.08,146.39a188.57,188.57,0,0,1-132.95,133.42c-109,29.31-523.25,31.38-580.66,31.47h-13.34c-29,0-149.11-.56-275-4.88l-16-.57-8.18-.37-16.06-.66-16.07-.66c-104.29-4.6-203.61-12-249.36-24.43a188.57,188.57,0,0,1-133-133.32c-10.42-39.18-17.38-92.65-22.08-146.39l-.75-9.86-.75-9.78q-7-95.49-7.7-191.3v-11.55c.18-20.2.94-90,6-167.06l.66-9.68.28-4.88.75-9.78,2.07-24.42.94-9.78c4.51-48.76,11.18-96.12,20.67-131.73a188.58,188.58,0,0,1,133-133.42c45.76-12.21,145.07-19.73,249.36-24.43l16-.65,16.16-.57,8.08-.28,16.07-.66q134.13-4.31,268.34-4.79h18.13Zm-155.12,301.6v452.69l390.58-226.25Z" transform="translate(-1456.48 -1818.54)"/></svg>